<?xml version="1.0" standalone="no"?>
<!DOCTYPE svg PUBLIC "-//W3C//DTD SVG 20010904//EN"
 "http://www.w3.org/TR/2001/REC-SVG-20010904/DTD/svg10.dtd">
<svg version="1.0" xmlns="http://www.w3.org/2000/svg"
 width="186.000000pt" height="174.000000pt" viewBox="0 0 186.000000 174.000000"
 preserveAspectRatio="xMidYMid meet">

<g transform="translate(0.000000,174.000000) scale(0.100000,-0.100000)"
fill="#000000" stroke="none">
<path d="M408 1578 l-3 -53 -121 -5 c-165 -7 -164 -6 -164 -157 l0 -113 810 0
810 0 0 114 c0 112 -1 115 -26 135 -24 19 -40 21 -145 21 l-119 0 0 55 0 55
-85 0 -85 0 0 -55 0 -55 -350 0 -350 0 0 55 0 55 -84 0 -85 0 -3 -52z"/>
<path d="M120 646 l0 -495 26 -20 c26 -21 33 -21 784 -21 751 0 758 0 784 21
l26 20 0 495 0 494 -810 0 -810 0 0 -494z m1040 304 l0 -80 -85 0 -85 0 0 80
0 80 85 0 85 0 0 -80z m290 0 l0 -80 -85 0 -85 0 0 80 0 80 85 0 85 0 0 -80z
m-870 -270 l0 -80 -85 0 -85 0 0 80 0 80 85 0 85 0 0 -80z m290 0 l0 -80 -85
0 -85 0 0 80 0 80 85 0 85 0 0 -80z m290 0 l0 -80 -85 0 -85 0 0 80 0 80 85 0
85 0 0 -80z m290 0 l0 -80 -85 0 -85 0 0 80 0 80 85 0 85 0 0 -80z m-870 -270
l0 -80 -85 0 -85 0 0 80 0 80 85 0 85 0 0 -80z m290 0 l0 -80 -85 0 -85 0 0
80 0 80 85 0 85 0 0 -80z m290 0 l0 -80 -85 0 -85 0 0 80 0 80 85 0 85 0 0
-80z"/>
</g>
</svg>
