<?xml version="1.0" standalone="no"?>
<!DOCTYPE svg PUBLIC "-//W3C//DTD SVG 20010904//EN"
 "http://www.w3.org/TR/2001/REC-SVG-20010904/DTD/svg10.dtd">
<svg version="1.0" xmlns="http://www.w3.org/2000/svg"
 width="176.000000pt" height="176.000000pt" viewBox="0 0 176.000000 176.000000"
 preserveAspectRatio="xMidYMid meet">

<g transform="translate(0.000000,176.000000) scale(0.100000,-0.100000)"
fill="#000000" stroke="none">
<path d="M406 1634 c-9 -9 -16 -32 -16 -55 l0 -39 -42 0 c-73 0 -120 -19 -169
-69 -49 -48 -69 -96 -69 -163 l0 -38 770 0 770 0 0 38 c0 67 -20 115 -69 163
-49 50 -96 69 -168 69 l-43 0 0 38 c0 25 -7 45 -18 55 -40 36 -82 9 -82 -54
l0 -39 -390 0 -390 0 0 38 c0 61 -48 92 -84 56z"/>
<path d="M110 728 c0 -279 4 -437 11 -463 15 -53 91 -129 144 -144 56 -15
1174 -15 1230 0 53 15 129 91 144 144 7 26 11 184 11 463 l0 422 -770 0 -770
0 0 -422z m631 284 l29 -32 0 -155 0 -155 -29 -32 -29 -33 -162 0 -162 0 -29
33 -29 32 0 154 c0 141 2 155 21 180 12 15 31 32 43 37 11 4 88 7 169 6 l149
-2 29 -33z"/>
</g>
</svg>
