<?xml version="1.0" standalone="no"?>
<!DOCTYPE svg PUBLIC "-//W3C//DTD SVG 20010904//EN"
 "http://www.w3.org/TR/2001/REC-SVG-20010904/DTD/svg10.dtd">
<svg version="1.0" xmlns="http://www.w3.org/2000/svg"
 width="168.000000pt" height="168.000000pt" viewBox="0 0 168.000000 168.000000"
 preserveAspectRatio="xMidYMid meet">

<g transform="translate(0.000000,168.000000) scale(0.100000,-0.100000)"
fill="#000000" stroke="none">
<path d="M912 1569 c-20 -6 -40 -22 -52 -42 -19 -31 -20 -54 -20 -687 0 -632
1 -656 20 -687 24 -40 81 -57 168 -50 73 6 106 29 123 86 7 24 9 255 7 677 -3
626 -4 642 -23 664 -41 46 -138 63 -223 39z"/>
<path d="M113 1406 c-64 -29 -63 -15 -63 -643 0 -521 1 -571 18 -603 21 -43
75 -64 141 -56 53 7 87 36 102 85 7 24 9 229 7 598 l-3 563 -32 31 c-26 27
-41 33 -85 36 -32 2 -66 -2 -85 -11z"/>
<path d="M1327 1410 c-74 -10 -117 -46 -117 -99 0 -54 98 -1092 107 -1130 13
-54 48 -74 132 -72 93 2 140 18 163 57 17 30 16 45 -37 608 -30 318 -60 587
-66 598 -12 23 -68 49 -101 47 -13 -1 -49 -5 -81 -9z"/>
<path d="M434 1200 c-45 -18 -64 -58 -64 -131 l0 -69 210 0 210 0 0 60 c0 72
-19 114 -60 135 -32 17 -258 21 -296 5z"/>
<path d="M370 655 l0 -235 210 0 210 0 0 235 0 235 -210 0 -210 0 0 -235z"/>
<path d="M370 247 c0 -127 39 -152 231 -145 89 3 120 7 141 22 34 22 51 74 46
141 l-3 50 -207 3 -208 2 0 -73z"/>
</g>
</svg>
