<?xml version="1.0" standalone="no"?>
<!DOCTYPE svg PUBLIC "-//W3C//DTD SVG 20010904//EN"
 "http://www.w3.org/TR/2001/REC-SVG-20010904/DTD/svg10.dtd">
<svg version="1.0" xmlns="http://www.w3.org/2000/svg"
 width="156.000000pt" height="156.000000pt" viewBox="0 0 156.000000 156.000000"
 preserveAspectRatio="xMidYMid meet">

<g transform="translate(0.000000,156.000000) scale(0.100000,-0.100000)"
fill="#000000" stroke="none">
<path d="M666 1392 c-596 -567 -616 -587 -616 -611 0 -25 26 -51 50 -51 10 0
158 134 340 308 178 169 330 307 340 307 10 0 162 -138 340 -307 178 -170 329
-308 337 -308 29 0 53 21 53 47 0 21 -26 51 -120 141 l-120 114 0 170 c0 98
-4 178 -10 189 -10 17 -22 19 -109 19 -115 0 -128 -8 -133 -83 l-3 -48 -98 91
c-89 83 -100 90 -138 90 -37 0 -48 -7 -113 -68z"/>
<path d="M523 1024 c-137 -130 -267 -256 -290 -279 l-43 -44 0 -256 c0 -272 6
-311 48 -334 30 -16 364 -15 380 1 8 8 12 64 12 188 0 96 3 199 6 228 l7 52
137 0 137 0 7 -52 c3 -29 6 -132 6 -228 0 -124 4 -180 12 -188 16 -16 350 -17
380 -1 42 23 48 62 48 334 l0 256 -42 44 c-107 108 -539 515 -548 515 -5 0
-121 -106 -257 -236z"/>
</g>
</svg>
