<?xml version="1.0" standalone="no"?>
<!DOCTYPE svg PUBLIC "-//W3C//DTD SVG 20010904//EN"
 "http://www.w3.org/TR/2001/REC-SVG-20010904/DTD/svg10.dtd">
<svg version="1.0" xmlns="http://www.w3.org/2000/svg"
 width="242.000000pt" height="239.000000pt" viewBox="0 0 242.000000 239.000000"
 preserveAspectRatio="xMidYMid meet">

<g transform="translate(0.000000,239.000000) scale(0.100000,-0.100000)"
fill="#000000" stroke="none">
<path d="M1070 2183 c-207 -21 -395 -87 -570 -201 -88 -58 -249 -226 -308
-322 -175 -284 -202 -628 -72 -925 71 -160 164 -284 300 -398 318 -265 790
-340 1180 -187 320 125 574 398 663 711 109 383 -33 808 -356 1066 -233 187
-554 285 -837 256z m541 -492 c78 -13 142 -46 200 -102 148 -144 134 -390 -31
-542 -77 -71 -143 -97 -249 -97 -70 0 -86 4 -149 36 -150 75 -233 225 -219
396 18 210 216 347 448 309z m-794 -165 c64 -32 115 -83 143 -144 18 -38 21
-59 18 -131 -5 -102 -30 -164 -94 -228 -69 -69 -115 -88 -214 -88 -103 0 -157
23 -226 97 -58 62 -86 126 -92 209 -10 143 70 259 211 305 67 22 191 12 254
-20z m41 -696 c41 -9 56 -18 64 -36 11 -23 6 -29 -59 -89 -78 -72 -143 -165
-178 -258 -12 -34 -27 -63 -32 -64 -34 -12 -223 162 -296 272 -67 100 -65 107
38 144 47 17 113 35 147 40 75 12 242 7 316 -9z m878 -41 c111 -25 226 -70
256 -98 21 -19 -142 -200 -247 -276 -127 -90 -278 -148 -452 -173 -98 -13
-131 -14 -222 -4 -93 11 -197 34 -255 57 -26 11 -16 61 30 155 42 85 138 188
217 235 98 57 239 102 367 119 57 7 254 -2 306 -15z"/>
</g>
</svg>
