<?xml version="1.0" standalone="no"?>
<!DOCTYPE svg PUBLIC "-//W3C//DTD SVG 20010904//EN"
 "http://www.w3.org/TR/2001/REC-SVG-20010904/DTD/svg10.dtd">
<svg version="1.0" xmlns="http://www.w3.org/2000/svg"
 width="69.000000pt" height="66.000000pt" viewBox="0 0 69.000000 66.000000"
 preserveAspectRatio="xMidYMid meet">

<g transform="translate(0.000000,66.000000) scale(0.100000,-0.100000)"
fill="#000000" stroke="none">
<path d="M20 335 l0 -325 325 0 325 0 0 325 0 325 -325 0 -325 0 0 -325z m630
0 l0 -315 -305 0 -305 0 0 315 0 315 305 0 305 0 0 -315z"/>
<path d="M231 584 c-83 -26 -141 -105 -141 -193 0 -80 58 -166 129 -190 48
-16 117 -14 153 5 l31 16 72 -77 72 -77 27 25 c14 13 26 27 26 30 0 3 -33 38
-74 78 l-74 73 19 38 c51 101 -12 240 -125 273 -58 17 -57 17 -115 -1z m101
-74 c29 -8 44 -21 63 -54 14 -23 25 -52 25 -64 0 -26 -20 -72 -32 -72 -4 0 -8
-6 -8 -14 0 -8 -19 -21 -42 -31 -36 -14 -49 -15 -85 -4 -35 9 -49 20 -68 54
-31 53 -31 77 0 131 18 31 35 46 58 53 43 12 46 12 89 1z"/>
</g>
</svg>
