<?xml version="1.0" standalone="no"?>
<!DOCTYPE svg PUBLIC "-//W3C//DTD SVG 20010904//EN"
 "http://www.w3.org/TR/2001/REC-SVG-20010904/DTD/svg10.dtd">
<svg version="1.0" xmlns="http://www.w3.org/2000/svg"
 width="98.000000pt" height="97.000000pt" viewBox="0 0 98.000000 97.000000"
 preserveAspectRatio="xMidYMid meet">

<g transform="translate(0.000000,97.000000) scale(0.100000,-0.100000)"
fill="#000000" stroke="none">
<path d="M295 936 c-99 -47 -183 -132 -232 -232 l-38 -79 1 -131 0 -130 37
-65 c35 -64 36 -67 27 -131 -5 -36 -14 -78 -20 -92 -28 -75 -5 -82 134 -37
l89 29 45 -19 c109 -47 234 -46 328 1 21 11 42 20 47 20 16 0 108 78 143 122
19 24 48 72 66 108 30 62 31 71 32 195 1 130 1 130 -36 207 -46 96 -127 178
-227 231 l-72 37 -127 0 c-124 0 -129 -1 -197 -34z m39 -397 c17 -13 26 -30
26 -49 0 -32 -40 -70 -73 -70 -29 0 -67 39 -67 69 0 31 36 71 65 71 12 0 34
-9 49 -21z m203 -1 c29 -27 29 -65 1 -95 -27 -29 -65 -29 -95 -1 -29 27 -29
65 -1 95 27 29 65 29 95 1z m200 0 c29 -27 29 -65 1 -95 -43 -46 -108 -18
-108 47 0 64 61 92 107 48z"/>
</g>
</svg>
