<?xml version="1.0" standalone="no"?>
<!DOCTYPE svg PUBLIC "-//W3C//DTD SVG 20010904//EN"
 "http://www.w3.org/TR/2001/REC-SVG-20010904/DTD/svg10.dtd">
<svg version="1.0" xmlns="http://www.w3.org/2000/svg"
 width="85.000000pt" height="100.000000pt" viewBox="0 0 85.000000 100.000000"
 preserveAspectRatio="xMidYMid meet">

<g transform="translate(0.000000,100.000000) scale(0.100000,-0.100000)"
fill="#000000" stroke="none">
<path d="M362 980 c-18 -11 -42 -36 -54 -55 -11 -20 -33 -42 -48 -50 -50 -26
-91 -67 -117 -118 -21 -42 -27 -74 -35 -172 -12 -153 -20 -182 -68 -246 -47
-63 -51 -99 -15 -134 l24 -25 374 0 374 0 20 23 c40 43 39 63 -11 135 -51 74
-66 130 -66 242 0 101 -30 189 -85 243 -24 24 -56 49 -72 56 -15 6 -35 26 -44
44 -20 41 -73 77 -113 77 -17 0 -46 -9 -64 -20z"/>
<path d="M270 97 c0 -18 60 -74 93 -86 41 -16 87 -13 133 8 38 17 84 62 84 82
0 5 -70 9 -155 9 -121 0 -155 -3 -155 -13z"/>
</g>
</svg>
