<?xml version="1.0" standalone="no"?>
<!DOCTYPE svg PUBLIC "-//W3C//DTD SVG 20010904//EN"
 "http://www.w3.org/TR/2001/REC-SVG-20010904/DTD/svg10.dtd">
<svg version="1.0" xmlns="http://www.w3.org/2000/svg"
 width="71.000000pt" height="73.000000pt" viewBox="0 0 71.000000 73.000000"
 preserveAspectRatio="xMidYMid meet">

<g transform="translate(0.000000,73.000000) scale(0.100000,-0.100000)"
fill="#000000" stroke="none">
<path d="M260 716 c-280 -77 -337 -469 -93 -637 186 -128 442 -36 513 185 63
193 -46 402 -235 452 -61 17 -125 16 -185 0z m219 -72 c25 -15 57 -36 70 -48
55 -49 100 -149 100 -221 0 -72 -45 -172 -100 -221 -64 -56 -99 -69 -194 -69
-77 0 -96 4 -130 24 -55 33 -83 59 -113 106 -65 100 -65 220 0 320 31 48 59
74 118 108 38 23 57 27 124 27 67 0 86 -4 125 -26z"/>
<path d="M246 466 l-79 -77 79 -77 79 -77 3 43 c3 39 5 42 32 42 41 0 118 -28
141 -51 10 -10 24 -19 30 -19 16 0 3 64 -23 119 -17 34 -31 48 -72 67 -28 13
-63 24 -78 24 -24 0 -27 4 -30 41 l-3 41 -79 -76z"/>
</g>
</svg>
