<?xml version="1.0" standalone="no"?>
<!DOCTYPE svg PUBLIC "-//W3C//DTD SVG 20010904//EN"
 "http://www.w3.org/TR/2001/REC-SVG-20010904/DTD/svg10.dtd">
<svg version="1.0" xmlns="http://www.w3.org/2000/svg"
 width="127.000000pt" height="129.000000pt" viewBox="0 0 127.000000 129.000000"
 preserveAspectRatio="xMidYMid meet">

<g transform="translate(0.000000,129.000000) scale(0.100000,-0.100000)"
fill="#000000" stroke="none">
<path d="M492 1230 c-109 -29 -187 -74 -275 -161 -115 -114 -167 -239 -167
-401 0 -239 164 -456 409 -540 55 -19 87 -23 186 -22 109 0 127 3 202 31 99
38 160 78 235 156 104 109 167 279 153 420 -13 139 -69 253 -175 359 -154 154
-361 212 -568 158z m266 -95 c148 -35 261 -125 329 -262 38 -76 38 -78 38
-197 0 -119 -1 -122 -37 -196 -20 -41 -47 -88 -61 -105 l-25 -30 -45 42 c-82
76 -194 116 -317 116 -125 -1 -236 -41 -317 -116 l-45 -41 -19 24 c-69 89
-109 200 -109 305 1 130 44 230 139 326 127 126 296 175 469 134z"/>
<path d="M588 981 c-59 -19 -100 -54 -124 -105 -28 -60 -29 -76 -9 -143 17
-58 69 -116 123 -139 85 -36 186 9 235 105 34 68 35 123 4 182 -40 76 -152
124 -229 100z"/>
</g>
</svg>
